<svg width="107" height="107" viewBox="0 0 107 107" fill="none" xmlns="http://www.w3.org/2000/svg">
<path fill-rule="evenodd" clip-rule="evenodd" d="M26.9791 79.1149C12.8077 64.4881 13.1751 41.1496 27.8011 26.9791C42.4296 12.8061 65.768 13.1768 79.9393 27.8036C94.1082 42.4279 93.7408 65.7664 79.1123 79.9394C64.4864 94.1099 41.148 93.7391 26.9791 79.1149ZM46.8857 45.9811C48.6741 46.082 52 46.1906 54 48.5C56 50.8094 56.6048 55.6013 54 58.5C52 60.7257 48.4348 60.6839 46.6433 60.7257C50.0626 63.1194 54.8132 62.8337 57.9272 59.8166C61.4535 56.4001 61.5383 50.7709 58.1276 47.2505C55.1106 44.1365 50.3798 43.6975 46.8857 45.9811ZM50.0623 39.8987C54.159 39.3947 58.4367 40.7511 61.5351 43.9491C66.7704 49.3526 66.6372 57.9839 61.2286 63.2241C58.0366 66.3168 53.7231 67.5357 49.6469 66.9083C55.1129 69.549 61.8784 68.6662 66.4914 64.1969C72.3987 58.4735 72.547 49.0447 66.826 43.1399C62.351 38.521 55.6127 37.4205 50.0623 39.8987ZM42.4025 66.8029C35.0551 59.2194 35.2506 47.1185 42.83 39.7751C50.1862 32.6479 61.7963 32.6135 69.1925 39.543L68.5453 38.8429C60.4705 30.5086 47.1746 30.2983 38.8403 38.3731C30.5077 46.4462 30.2974 59.7422 38.3722 68.0765C46.4454 76.4091 59.7405 76.6185 68.0731 68.5453C68.3123 68.3136 68.5399 68.0783 68.7667 67.8405C61.1622 74.5553 49.5355 74.1651 42.4025 66.8029ZM34.7357 71.5998C24.7139 61.2559 24.9723 44.7575 35.3162 34.7357C45.6617 24.7123 62.161 24.9749 72.1827 35.3187C82.202 45.66 81.9428 62.1593 71.5972 72.1827C61.2534 82.2045 44.755 81.9411 34.7357 71.5998ZM32.1255 74.1287C20.7074 62.3436 21.0048 43.5412 32.7873 32.1255C44.5724 20.7074 63.3748 21.0048 74.7929 32.7898C86.2085 44.5724 85.9112 63.3748 74.1261 74.7929C62.3436 86.2085 43.5412 85.9112 32.1255 74.1287Z" fill="url(#paint0_linear)"/>
<defs>
<linearGradient id="paint0_linear" x1="26.9778" y1="79.1136" x2="79.9381" y2="27.8023" gradientUnits="userSpaceOnUse">
<stop stop-color="#7B0361"/>
<stop offset="1" stop-color="#7500D1"/>
</linearGradient>
</defs>
</svg>
