<svg width="201" height="201" viewBox="0 0 201 201" fill="none" xmlns="http://www.w3.org/2000/svg">
<path fill-rule="evenodd" clip-rule="evenodd" d="M100.812 0.878723C156.049 0.878723 200.817 45.6403 200.817 100.874C200.817 156.117 156.049 200.879 100.812 200.879C45.585 200.879 0.816986 156.117 0.816986 100.874C0.816986 45.6403 45.585 0.878723 100.812 0.878723ZM127.785 102.187C124.213 105.48 117.725 111.754 109.452 111.292C101.179 110.829 90.7032 102.963 89.9726 92.4189C89.4117 84.3226 96.2217 77.4568 99.5212 73.8882C88.4053 76.0313 79.9963 85.8242 79.9963 97.584C79.9963 110.901 90.8015 121.69 104.096 121.69C115.856 121.69 125.639 113.303 127.785 102.187ZM133.638 119.854C126.888 128.785 116.173 134.558 104.096 134.558C83.6898 134.558 67.1281 118.009 67.1281 97.584C67.1281 85.5295 72.8943 74.8268 81.8094 68.0708C66.3496 73.7344 55.301 88.5791 55.301 105.999C55.301 128.308 73.3876 146.392 95.6867 146.392C113.129 146.392 127.99 135.343 133.638 119.854ZM95.6867 54.1582C124.325 54.1582 147.528 77.3767 147.528 105.999C147.528 133.78 125.684 156.46 98.227 157.789L100.812 157.85C132.286 157.85 157.788 132.348 157.788 100.874C157.788 69.4066 132.286 43.904 100.812 43.904C69.3449 43.904 43.8455 69.4066 43.8455 100.874C43.8455 101.777 43.8743 102.665 43.9096 103.555C45.1813 76.0697 67.8841 54.1582 95.6867 54.1582ZM100.812 30.1709C139.875 30.1709 171.525 61.8112 171.525 100.874C171.525 139.943 139.875 171.587 100.812 171.587C61.7591 171.587 30.1092 139.943 30.1092 100.874C30.1092 61.8112 61.7591 30.1709 100.812 30.1709ZM100.812 20.314C145.317 20.314 181.382 56.3782 181.382 100.874C181.382 145.379 145.317 181.444 100.812 181.444C56.3165 181.444 20.2522 145.379 20.2522 100.874C20.2522 56.3782 56.3165 20.314 100.812 20.314Z" fill="url(#paint0_linear_830_523)"/>
<defs>
<linearGradient id="paint0_linear_830_523" x1="104.017" y1="-50.6992" x2="100.817" y2="200.879" gradientUnits="userSpaceOnUse">
<stop stop-color="#EF3CFF"/>
</linearGradient>
</defs>
</svg>
